<svg width="24" height="24" viewBox="0 0 24 24" fill="none" xmlns="http://www.w3.org/2000/svg">
<g clip-path="url(#clip0_209_588)">
<path d="M22 10.551V6C22 4.62202 20.878 3.50002 19.5 3.50002H4.5C3.12202 3.50002 2.00002 4.62202 2.00002 6V10.551C0.861 10.783 0 11.793 0 13V20C0 20.276 0.224016 20.5 0.500016 20.5C0.776016 20.5 1.00003 20.276 1.00003 20V18.5H23V20C23 20.276 23.224 20.5 23.5 20.5C23.776 20.5 24 20.276 24 20V13C24 11.793 23.139 10.783 22 10.551ZM3 6C3 5.17298 3.67298 4.5 4.5 4.5H19.5C20.327 4.5 21 5.17298 21 6V10.5H19.624C19.722 10.225 19.747 9.92798 19.674 9.636L19.174 7.63598C19.0932 7.31132 18.906 7.02305 18.6423 6.81716C18.3786 6.61126 18.0536 6.4996 17.719 6.49997H14.5C13.673 6.49997 13 7.17295 13 7.99997V9.99998C13 10.176 13.036 10.343 13.092 10.5H10.908C10.964 10.343 11 10.176 11 9.99998V7.99997C11 7.17295 10.327 6.49997 9.50002 6.49997H6.28102C5.9465 6.49979 5.62153 6.61152 5.35786 6.81739C5.09419 7.02325 4.90697 7.31141 4.82602 7.63598L4.326 9.636C4.25302 9.92798 4.278 10.225 4.37602 10.5H3V6ZM18.613 10.308C18.5664 10.368 18.5066 10.4165 18.4383 10.4498C18.37 10.4831 18.295 10.5003 18.219 10.5H14.5C14.224 10.5 14 10.276 14 9.99998V7.99997C14 7.72397 14.224 7.49995 14.5 7.49995H17.719C17.949 7.49995 18.148 7.65595 18.204 7.87894L18.704 9.87895C18.742 10.029 18.709 10.186 18.613 10.308ZM9.999 7.99898V9.999C9.999 10.275 9.77498 10.499 9.49898 10.499H5.77997C5.62495 10.499 5.48095 10.429 5.38598 10.307C5.29102 10.185 5.25698 10.028 5.295 9.87802L5.79502 7.878C5.85202 7.656 6.051 7.5 6.28003 7.49902H9.49903C9.77498 7.49902 9.999 7.72298 9.999 7.99898ZM23 17.5H0.999984V16.5H23V17.5H23ZM23 15.5H0.999984V13C0.999984 12.173 1.67297 11.5 2.49998 11.5H21.5001C22.3271 11.5 23.0001 12.173 23.0001 13V15.5H23Z" fill="black"/>
</g>
<defs>
<clipPath id="clip0_209_588">
<rect width="24" height="24" fill="white"/>
</clipPath>
</defs>
</svg>
