<svg width="20" height="21" viewBox="0 0 20 21" fill="none" xmlns="http://www.w3.org/2000/svg">
<g clip-path="url(#clip0_81_169)">
<path d="M20 10.2642C20 4.74131 15.5229 0.26416 10 0.26416C4.47715 0.26416 0 4.74131 0 10.2642C0 15.2554 3.65684 19.3925 8.4375 20.1427V13.1548H5.89844V10.2642H8.4375V8.06104C8.4375 5.55479 9.93047 4.17041 12.2146 4.17041C13.3084 4.17041 14.4531 4.36572 14.4531 4.36572V6.82666H13.1922C11.95 6.82666 11.5625 7.59756 11.5625 8.38916V10.2642H14.3359L13.8926 13.1548H11.5625V20.1427C16.3432 19.3925 20 15.2554 20 10.2642Z" fill="white"/>
<path d="M13.8923 13.1553L14.3357 10.2646H11.5622V8.38965C11.5622 7.59883 11.9497 6.82715 13.1919 6.82715H14.4528V4.36621C14.4528 4.36621 13.3085 4.1709 12.2144 4.1709C9.93019 4.1709 8.43723 5.55527 8.43723 8.06152V10.2646H5.89816V13.1553H8.43723V20.1432C9.47259 20.3051 10.5269 20.3051 11.5622 20.1432V13.1553H13.8923Z" fill="#3C5F3E"/>
</g>
<defs>
<clipPath id="clip0_81_169">
<rect width="20" height="20" fill="white" transform="translate(0 0.264648)"/>
</clipPath>
</defs>
</svg>
