<svg width="20" height="21" viewBox="0 0 20 21" fill="none" xmlns="http://www.w3.org/2000/svg">
<path d="M10.0008 2.06592C12.6727 2.06592 12.9891 2.07764 14.0398 2.12451C15.0164 2.16748 15.5437 2.33154 15.8953 2.46826C16.3602 2.64795 16.6961 2.8667 17.0437 3.21435C17.3953 3.56592 17.6102 3.89795 17.7898 4.36279C17.9266 4.71435 18.0906 5.2456 18.1336 6.21826C18.1805 7.27295 18.1922 7.58935 18.1922 10.2573C18.1922 12.9292 18.1805 13.2456 18.1336 14.2964C18.0906 15.2729 17.9266 15.8003 17.7898 16.1519C17.6102 16.6167 17.3914 16.9526 17.0437 17.3003C16.6922 17.6519 16.3602 17.8667 15.8953 18.0464C15.5437 18.1831 15.0125 18.3472 14.0398 18.3901C12.9852 18.437 12.6687 18.4487 10.0008 18.4487C7.3289 18.4487 7.0125 18.437 5.96172 18.3901C4.98515 18.3472 4.45781 18.1831 4.10625 18.0464C3.6414 17.8667 3.30547 17.6479 2.95781 17.3003C2.60625 16.9487 2.3914 16.6167 2.21172 16.1519C2.075 15.8003 1.91093 15.269 1.86797 14.2964C1.82109 13.2417 1.80937 12.9253 1.80937 10.2573C1.80937 7.58545 1.82109 7.26904 1.86797 6.21826C1.91093 5.2417 2.075 4.71435 2.21172 4.36279C2.3914 3.89795 2.61015 3.56201 2.95781 3.21435C3.30937 2.86279 3.6414 2.64795 4.10625 2.46826C4.45781 2.33154 4.98906 2.16748 5.96172 2.12451C7.0125 2.07764 7.3289 2.06592 10.0008 2.06592ZM10.0008 0.265137C7.28594 0.265137 6.94609 0.276855 5.87968 0.32373C4.81718 0.370605 4.08672 0.54248 3.4539 0.788574C2.79375 1.04639 2.23515 1.38623 1.68047 1.94482C1.12187 2.49951 0.782028 3.05811 0.524216 3.71436C0.278122 4.35107 0.106247 5.07764 0.059372 6.14014C0.012497 7.21045 0.000778198 7.55029 0.000778198 10.2651C0.000778198 12.98 0.012497 13.3198 0.059372 14.3862C0.106247 15.4487 0.278122 16.1792 0.524216 16.812C0.782028 17.4722 1.12187 18.0308 1.68047 18.5854C2.23515 19.1401 2.79375 19.4839 3.45 19.7378C4.08672 19.9839 4.81328 20.1558 5.87578 20.2026C6.94218 20.2495 7.28203 20.2612 9.99687 20.2612C12.7117 20.2612 13.0516 20.2495 14.118 20.2026C15.1805 20.1558 15.9109 19.9839 16.5437 19.7378C17.2 19.4839 17.7586 19.1401 18.3133 18.5854C18.868 18.0308 19.2117 17.4722 19.4656 16.8159C19.7117 16.1792 19.8836 15.4526 19.9305 14.3901C19.9773 13.3237 19.9891 12.9839 19.9891 10.269C19.9891 7.5542 19.9773 7.21435 19.9305 6.14795C19.8836 5.08545 19.7117 4.35498 19.4656 3.72217C19.2195 3.0581 18.8797 2.49951 18.3211 1.94482C17.7664 1.39014 17.2078 1.04639 16.5516 0.79248C15.9148 0.546387 15.1883 0.374512 14.1258 0.327637C13.0555 0.276855 12.7156 0.265137 10.0008 0.265137Z" fill="white"/>
<path d="M10.0002 5.12842C7.16425 5.12842 4.86346 7.4292 4.86346 10.2651C4.86346 13.1011 7.16425 15.4019 10.0002 15.4019C12.8361 15.4019 15.1369 13.1011 15.1369 10.2651C15.1369 7.4292 12.8361 5.12842 10.0002 5.12842ZM10.0002 13.5972C8.16034 13.5972 6.66815 12.105 6.66815 10.2651C6.66815 8.42529 8.16034 6.93311 10.0002 6.93311C11.84 6.93311 13.3322 8.42529 13.3322 10.2651C13.3322 12.105 11.84 13.5972 10.0002 13.5972Z" fill="white"/>
<path d="M16.5404 4.9253C16.5404 5.58936 16.0013 6.12452 15.3412 6.12452C14.6771 6.12452 14.142 5.58545 14.142 4.9253C14.142 4.26123 14.681 3.72607 15.3412 3.72607C16.0013 3.72607 16.5404 4.26514 16.5404 4.9253Z" fill="white"/>
</svg>
