<svg width="24" height="24" viewBox="0 0 24 24" fill="none" xmlns="http://www.w3.org/2000/svg">
<path d="M7.12425 8.99541H0.375C0.325737 8.99547 0.276946 8.98581 0.231421 8.96699C0.185896 8.94816 0.144532 8.92054 0.109698 8.88571C0.0748634 8.85087 0.0472435 8.80951 0.0284198 8.76399C0.00959615 8.71846 -6.14008e-05 8.66967 2.9373e-07 8.62041V0.375C2.9373e-07 0.167531 0.167532 0 0.375 0H7.12425C7.33153 0 7.49925 0.167531 7.49925 0.375V8.62041C7.49925 8.82788 7.33153 8.99541 7.12425 8.99541ZM0.75 8.24541H6.74925V0.75H0.75V8.24541ZM20.6221 8.99541H13.8727C13.8235 8.99547 13.7747 8.98581 13.7292 8.96699C13.6836 8.94816 13.6423 8.92054 13.6074 8.88571C13.5726 8.85087 13.545 8.80951 13.5262 8.76399C13.5073 8.71846 13.4977 8.66967 13.4977 8.62041V0.375C13.4977 0.167531 13.6653 0 13.8727 0H20.622C20.8293 0 20.997 0.167531 20.997 0.375V8.62041C20.997 8.82788 20.8293 8.99541 20.6221 8.99541ZM14.2478 8.24541H20.2471V0.75H14.2477L14.2478 8.24541ZM7.12425 24H0.375C0.325737 24.0001 0.276946 23.9904 0.231421 23.9716C0.185896 23.9528 0.144532 23.9251 0.109698 23.8903C0.0748634 23.8555 0.0472435 23.8141 0.0284198 23.7686C0.00959615 23.7231 -6.14008e-05 23.6743 2.9373e-07 23.625V15.3765C2.9373e-07 15.1692 0.167532 15.0015 0.375 15.0015H7.12425C7.33153 15.0015 7.49925 15.1692 7.49925 15.3765V23.625C7.49925 23.8325 7.33153 24 7.12425 24ZM0.75 23.25H6.74925V15.7515H0.75V23.25ZM20.6221 24H13.8727C13.8235 24.0001 13.7747 23.9904 13.7292 23.9716C13.6836 23.9528 13.6423 23.9251 13.6074 23.8903C13.5726 23.8555 13.545 23.8141 13.5262 23.7686C13.5073 23.7231 13.4977 23.6743 13.4977 23.625V15.3765C13.4977 15.1692 13.6653 15.0015 13.8727 15.0015H20.622C20.8293 15.0015 20.997 15.1692 20.997 15.3765V23.625C20.997 23.8325 20.8293 24 20.6221 24ZM14.2478 23.25H20.2471V15.7515H14.2477L14.2478 23.25Z" fill="black"/>
<path d="M13.8728 6H7.12427C6.91685 6 6.74927 5.83247 6.74927 5.625C6.74927 5.41753 6.91685 5.25 7.12427 5.25H13.8729C14.0801 5.25 14.2479 5.41753 14.2479 5.625C14.2479 5.83247 14.0801 6 13.8729 6H13.8728ZM13.8728 15.75H7.12427C6.91685 15.75 6.74927 15.5825 6.74927 15.375C6.74927 15.1675 6.91685 15 7.12427 15H13.8729C14.0801 15 14.2479 15.1675 14.2479 15.375C14.2479 15.5825 14.0801 15.75 13.8729 15.75H13.8728ZM13.8728 24H7.12427C6.91685 24 6.74927 23.8325 6.74927 23.625C6.74927 23.4175 6.91685 23.25 7.12427 23.25H13.8729C14.0801 23.25 14.2479 23.4175 14.2479 23.625C14.2479 23.8325 14.0801 24 13.8729 24H13.8728ZM13.8728 0.75H7.12427C6.91685 0.75 6.74927 0.582469 6.74927 0.375C6.74927 0.167531 6.91685 0 7.12427 0H13.8729C14.0801 0 14.2479 0.167531 14.2479 0.375C14.2479 0.582469 14.0801 0.75 13.8729 0.75H13.8728Z" fill="black"/>
<path d="M14.6221 15.7293C14.5728 15.7294 14.524 15.7197 14.4785 15.7009C14.433 15.6821 14.3916 15.6545 14.3568 15.6196C14.3219 15.5848 14.2943 15.5434 14.2755 15.4979C14.2567 15.4524 14.247 15.4036 14.2471 15.3543V14.2507C14.2471 14.0435 14.4146 13.8757 14.6221 13.8757C14.8293 13.8757 14.9971 14.0435 14.9971 14.2507V15.3543C14.9971 15.5617 14.8293 15.7293 14.6221 15.7293Z" fill="black"/>
<path d="M19.8728 14.6257H14.6221C14.5728 14.6258 14.524 14.6162 14.4785 14.5973C14.433 14.5785 14.3916 14.5509 14.3568 14.5161C14.3219 14.4812 14.2943 14.4399 14.2755 14.3943C14.2567 14.3488 14.247 14.3 14.2471 14.2507C14.2471 14.0435 14.4146 13.8757 14.6221 13.8757H19.8728C20.0801 13.8757 20.2478 14.0435 20.2478 14.2507C20.2478 14.4582 20.0801 14.6257 19.8728 14.6257Z" fill="black"/>
<path d="M19.8728 15.7515C19.8235 15.7515 19.7747 15.7419 19.7292 15.723C19.6837 15.7042 19.6423 15.6766 19.6075 15.6418C19.5727 15.6069 19.545 15.5656 19.5262 15.52C19.5074 15.4745 19.4977 15.4257 19.4978 15.3765V14.2508C19.4978 14.0435 19.6653 13.8758 19.8728 13.8758C20.0801 13.8758 20.2478 14.0435 20.2478 14.2508V15.3765C20.2478 15.5839 20.0801 15.7515 19.8728 15.7515ZM17.2474 14.6258C17.1982 14.6258 17.1494 14.6162 17.1038 14.5973C17.0583 14.5785 17.017 14.5509 16.9821 14.5161C16.9473 14.4812 16.9197 14.4399 16.9008 14.3943C16.882 14.3488 16.8724 14.3 16.8724 14.2508V12.0008C16.8724 11.7935 17.04 11.6258 17.2474 11.6258C17.4547 11.6258 17.6224 11.7935 17.6224 12.0008V14.2508C17.6224 14.4582 17.4547 14.6258 17.2474 14.6258ZM15.7474 14.6258C15.6982 14.6258 15.6494 14.6162 15.6038 14.5973C15.5583 14.5785 15.517 14.5509 15.4821 14.5161C15.4473 14.4812 15.4197 14.4399 15.4008 14.3943C15.382 14.3488 15.3724 14.3 15.3724 14.2508V13.875C15.3724 13.6675 15.54 13.5 15.7474 13.5C15.9547 13.5 16.1224 13.6675 16.1224 13.875V14.2508C16.1224 14.4582 15.9547 14.6258 15.7474 14.6258ZM18.7474 14.6258C18.6982 14.6258 18.6494 14.6162 18.6038 14.5973C18.5583 14.5785 18.517 14.5509 18.4821 14.5161C18.4473 14.4812 18.4197 14.4399 18.4008 14.3943C18.382 14.3488 18.3724 14.3 18.3724 14.2508V13.875C18.3724 13.6675 18.54 13.5 18.7474 13.5C18.9547 13.5 19.1224 13.6675 19.1224 13.875V14.2508C19.1224 14.4582 18.9547 14.6258 18.7474 14.6258ZM14.9971 20.253C14.9478 20.253 14.899 20.2434 14.8535 20.2245C14.808 20.2057 14.7666 20.1781 14.7318 20.1433C14.697 20.1084 14.6693 20.0671 14.6505 20.0215C14.6317 19.976 14.622 19.9272 14.6221 19.878V19.125C14.6221 18.9175 14.7896 18.75 14.9971 18.75C15.2043 18.75 15.3721 18.9175 15.3721 19.125V19.878C15.3721 20.0854 15.2043 20.253 14.9971 20.253ZM14.9971 5.25146C14.9478 5.25152 14.899 5.24186 14.8535 5.22304C14.808 5.20421 14.7666 5.17659 14.7318 5.14176C14.697 5.10692 14.6693 5.06556 14.6505 5.02003C14.6317 4.97451 14.622 4.92572 14.6221 4.87646V4.1236C14.6221 3.91613 14.7896 3.7486 14.9971 3.7486C15.2043 3.7486 15.3721 3.91613 15.3721 4.1236V4.8765C15.3721 5.08397 15.2043 5.25146 14.9971 5.25146ZM1.49742 5.25146C1.44816 5.25152 1.39937 5.24186 1.35384 5.22304C1.30832 5.20421 1.26695 5.17659 1.23212 5.14176C1.19729 5.10692 1.16967 5.06556 1.15084 5.02003C1.13202 4.97451 1.12236 4.92572 1.12242 4.87646V4.1236C1.12242 3.91613 1.29 3.7486 1.49742 3.7486C1.7047 3.7486 1.87242 3.91613 1.87242 4.1236V4.8765C1.87242 5.08397 1.7047 5.25146 1.49742 5.25146ZM7.12425 19.8772H0.375C0.325737 19.8773 0.276946 19.8676 0.231421 19.8488C0.185896 19.83 0.144532 19.8023 0.109698 19.7675C0.0748634 19.7327 0.0472435 19.6913 0.0284198 19.6458C0.00959615 19.6003 -6.14008e-05 19.5515 2.9373e-07 19.5022C2.9373e-07 19.2949 0.167532 19.1272 0.375 19.1272H7.12425C7.33153 19.1272 7.49925 19.2949 7.49925 19.5022C7.49925 19.7097 7.33153 19.8772 7.12425 19.8772ZM10.4974 24C10.4482 24.0001 10.3994 23.9904 10.3538 23.9716C10.3083 23.9528 10.267 23.9251 10.2321 23.8903C10.1973 23.8555 10.1697 23.8141 10.1508 23.7686C10.132 23.7231 10.1224 23.6743 10.1224 23.625V15.3765C10.1224 15.1692 10.29 15.0015 10.4974 15.0015C10.7047 15.0015 10.8724 15.1692 10.8724 15.3765V23.625C10.8724 23.8325 10.7047 24 10.4974 24ZM9.37242 20.253C9.32316 20.253 9.27437 20.2434 9.22884 20.2245C9.18332 20.2057 9.14195 20.1781 9.10712 20.1433C9.07229 20.1084 9.04467 20.0671 9.02584 20.0215C9.00702 19.976 8.99736 19.9272 8.99742 19.878V19.1258C8.99742 18.9185 9.165 18.7508 9.37242 18.7508C9.5797 18.7508 9.74742 18.9185 9.74742 19.1258V19.8779C9.74742 20.0854 9.5797 20.253 9.37242 20.253ZM4.12242 16.8721H3.37242C3.165 16.8721 2.99742 16.7043 2.99742 16.4971C2.99742 16.2896 3.165 16.1221 3.37242 16.1221H4.12242C4.3297 16.1221 4.49742 16.2896 4.49742 16.4971C4.49742 16.7043 4.3297 16.8721 4.12242 16.8721ZM10.8724 4.8728H10.1224C9.915 4.8728 9.74742 4.70508 9.74742 4.4978C9.74742 4.29033 9.915 4.1228 10.1224 4.1228H10.8724C11.0797 4.1228 11.2474 4.29033 11.2474 4.4978C11.2474 4.70508 11.0797 4.8728 10.8724 4.8728ZM4.12242 20.9993H3.37242C3.165 20.9993 2.99742 20.8315 2.99742 20.6243C2.99742 20.4168 3.165 20.2493 3.37242 20.2493H4.12242C4.3297 20.2493 4.49742 20.4168 4.49742 20.6243C4.49742 20.8315 4.3297 20.9993 4.12242 20.9993ZM11.6221 20.253C11.5728 20.253 11.524 20.2434 11.4785 20.2245C11.433 20.2057 11.3916 20.1781 11.3568 20.1433C11.322 20.1084 11.2943 20.0671 11.2755 20.0215C11.2567 19.976 11.247 19.9272 11.2471 19.878V19.1258C11.2471 18.9185 11.4146 18.7508 11.6221 18.7508C11.8293 18.7508 11.9971 18.9185 11.9971 19.1258V19.8779C11.9971 20.0854 11.8293 20.253 11.6221 20.253Z" fill="black"/>
</svg>
