<svg width="24" height="24" viewBox="0 0 24 24" fill="none" xmlns="http://www.w3.org/2000/svg">
<path d="M4.55 22.075C4.55 22.1811 4.50786 22.2828 4.43284 22.3578C4.35783 22.4329 4.25609 22.475 4.15 22.475H0.4C0.293913 22.475 0.192172 22.4329 0.117157 22.3578C0.0421427 22.2828 0 22.1811 0 22.075C0 21.9689 0.0421427 21.8672 0.117157 21.7922C0.192172 21.7171 0.293913 21.675 0.4 21.675H4.15C4.25609 21.675 4.35783 21.7171 4.43284 21.7922C4.50786 21.8672 4.55 21.9689 4.55 22.075ZM9.3 4.42501C10.8439 4.42501 12.1 5.68111 12.1 7.22501V7.925C12.1 8.03109 12.0579 8.13283 11.9828 8.20785C11.9078 8.28286 11.8061 8.325 11.7 8.325H6.9C6.79391 8.325 6.69217 8.28286 6.61716 8.20785C6.54214 8.13283 6.5 8.03109 6.5 7.925V7.22501C6.5 5.68111 7.7561 4.42501 9.3 4.42501ZM7.3 7.22501V7.52501H11.3V7.22501C11.3 6.12221 10.4028 5.22501 9.3 5.22501C8.1972 5.22501 7.3 6.12221 7.3 7.22501ZM3.325 20.875C3.37758 20.875 3.42963 20.8646 3.4782 20.8445C3.52677 20.8244 3.57089 20.7949 3.60804 20.7577C3.64519 20.7205 3.67464 20.6763 3.69471 20.6277C3.71478 20.5791 3.72507 20.527 3.725 20.4745L3.704 4.84071C3.70215 3.45081 4.82635 2.325 6.21635 2.325H6.3877C7.1897 2.325 7.92475 2.69451 8.40435 3.33876C8.46842 3.42185 8.56257 3.47644 8.66652 3.49077C8.77046 3.5051 8.87587 3.47802 8.96004 3.41536C9.0442 3.35271 9.10038 3.2595 9.11647 3.15581C9.13256 3.05213 9.10727 2.94627 9.04605 2.86106C8.42325 2.02451 7.42945 1.52505 6.3877 1.52505H6.21635C4.3839 1.52505 2.90155 3.00921 2.904 4.84181L2.925 20.4756C2.92515 20.5815 2.96735 20.6831 3.04235 20.758C3.11735 20.8329 3.21901 20.875 3.325 20.875ZM22.2 15.425V12.8169C22.2 11.6359 21.2392 10.675 20.0582 10.675H9.14185C7.96085 10.675 7 11.6359 7 12.8169V15.4625C7 15.5686 7.04214 15.6703 7.11716 15.7453C7.19217 15.8204 7.29391 15.8625 7.4 15.8625C7.50609 15.8625 7.60783 15.8204 7.68284 15.7453C7.75786 15.6703 7.8 15.5686 7.8 15.4625V12.8169C7.8 12.077 8.40195 11.475 9.14185 11.475H14.25V15.975C14.25 16.0811 14.2921 16.1828 14.3672 16.2578C14.4422 16.3329 14.5439 16.375 14.65 16.375C14.7561 16.375 14.8578 16.3329 14.9328 16.2578C15.0079 16.1828 15.05 16.0811 15.05 15.975V11.475H20.0582C20.7981 11.475 21.4 12.077 21.4 12.8169V15.4356C20.5018 15.5324 19.8 16.2949 19.8 17.2185V17.575C19.8 17.6811 19.8421 17.7828 19.9172 17.8578C19.9922 17.9329 20.0939 17.975 20.2 17.975C20.3061 17.975 20.4078 17.9329 20.4828 17.8578C20.5579 17.7828 20.6 17.6811 20.6 17.575V17.2185C20.6 16.6707 21.0457 16.225 21.5935 16.225H22.2066C22.7544 16.225 23.2 16.6707 23.2 17.2185V20.6816C23.2 21.2294 22.7544 21.6751 22.2066 21.6751H20.6C20.6 19.0571 20.602 19.2182 20.5966 19.1751C20.6271 18.9308 20.4361 18.7251 20.2 18.7251H9.375C9.26891 18.7251 9.16717 18.7672 9.09216 18.8422C9.01714 18.9172 8.975 19.019 8.975 19.1251C8.975 19.2311 9.01714 19.3329 9.09216 19.4079C9.16717 19.4829 9.26891 19.5251 9.375 19.5251H19.8V22.0751C19.8 22.1811 19.8421 22.2829 19.9172 22.3579C19.9922 22.4329 20.0939 22.4751 20.2 22.4751H22.2066C23.1955 22.4751 24 21.6705 24 20.6816V17.2185C24 16.2425 23.2111 15.425 22.2 15.425ZM20.775 21.675H7.0935C6.5457 21.675 6.1 21.2293 6.1 20.6815V17.2185C6.1 16.6707 6.5457 16.225 7.0935 16.225H7.70655C8.25435 16.225 8.70005 16.6707 8.70005 17.2185V19.1C8.70005 19.2061 8.74219 19.3078 8.81721 19.3828C8.89222 19.4579 8.99396 19.5 9.10005 19.5C9.20614 19.5 9.30788 19.4579 9.38289 19.3828C9.45791 19.3078 9.50005 19.2061 9.50005 19.475V17.2185C9.50005 16.2296 8.6955 15.425 7.70655 15.425H7.0935C6.10455 15.425 5.3 16.2296 5.3 17.2185V20.6816C5.3 21.6705 6.10455 22.4751 7.0935 22.4751H20.775C20.8811 22.4751 20.9828 22.4329 21.0579 22.3579C21.1329 22.2829 21.175 22.1811 21.175 22.075C21.175 21.9689 21.1329 21.8672 21.0579 21.7922C20.9828 21.7171 20.8811 21.675 20.775 21.675Z" fill="black"/>
</svg>
