<svg width="88" height="62" viewBox="0 0 88 62" fill="none" xmlns="http://www.w3.org/2000/svg">
<g clip-path="url(#clip0_138_495)">
<path d="M34.5433 47.425L36.7126 43.5006L37.9828 45.7954L34.5516 47.425H34.5433ZM32.1101 51.8232L38.5685 46.8928L41.3069 51.8232H43.5174L40.1109 45.6873L41.1996 44.8392C41.0677 44.6064 41.0842 44.6064 40.9522 44.3736L39.7232 44.9556L36.7044 39.4931L29.8914 51.8232H32.1101Z" fill="#3C5F3E"/>
<path d="M9.46893 39.6843H12.1413L8.04199 51.8482H4.0911L0 39.6843H2.86212L6.13666 49.728L9.46893 39.6843Z" fill="#3C5F3E"/>
<path d="M16.6284 43.0101H13.9065V51.8482H16.6284V43.0101Z" fill="#3C5F3E"/>
<path d="M26.8315 39.6843H29.3884V51.8482H26.65L21.1485 43.6586V51.8482H18.5916V39.6843H21.33L26.8315 47.8656V39.6843Z" fill="#3C5F3E"/>
<path d="M63.4617 39.6843H66.0516L62.6781 51.8482H59.2221L56.6322 42.5361L53.9845 51.8482H50.5202L47.1467 39.6843H49.8934L52.4421 49.329L55.164 39.6843H58.1663L60.8387 49.4703L63.4617 39.6843Z" fill="#3C5F3E"/>
<path d="M72.7655 46.0614C73.1614 45.8951 73.4501 45.6457 73.6398 45.2965C73.8295 44.9556 73.9203 44.4983 73.9203 43.933C73.9203 43.1015 73.7058 42.4946 73.2852 42.1121C72.8645 41.7297 72.1964 41.5384 71.2891 41.5384C70.8189 41.5384 70.3818 41.5717 69.9941 41.6465V46.2111C70.3405 46.2693 70.7612 46.2942 71.2396 46.2942C71.8665 46.2942 72.3779 46.2111 72.7655 46.0531M67.2722 39.9088C68.5259 39.6594 69.7797 39.543 71.0416 39.543C72.8892 39.543 74.2749 39.9005 75.1822 40.6072C76.0978 41.3139 76.5514 42.4281 76.5514 43.933C76.5514 45.4378 76.106 46.4855 75.2152 47.2254C74.3244 47.9654 72.9882 48.3312 71.2149 48.3312C71.0746 48.3312 70.9179 48.3312 70.7282 48.3229C70.5385 48.3229 70.4065 48.3146 70.3076 48.3063L69.9941 48.2897V51.8482H67.2722V39.9088Z" fill="#3C5F3E"/>
<path d="M77.7062 45.787C77.7062 44.4318 77.9619 43.2927 78.4733 42.3532C78.9847 41.422 79.7436 40.7153 80.7416 40.2414C81.7396 39.7675 82.9604 39.5264 84.4038 39.5264C85.3441 39.5264 86.2431 39.6261 87.1009 39.8257V42.1038C86.3009 41.9126 85.4678 41.8128 84.61 41.8128C83.2078 41.8128 82.185 42.1287 81.5252 42.7606C80.8653 43.3925 80.5354 44.3902 80.5354 45.7538C80.5354 47.1173 80.8571 48.1483 81.5087 48.7719C82.152 49.3955 83.1501 49.7114 84.4863 49.7114C85.3523 49.7114 86.2266 49.5867 87.0927 49.3373V51.6071C86.2431 51.8648 85.3028 51.9895 84.2883 51.9895C79.892 51.9895 77.698 49.9193 77.698 45.7787" fill="#3C5F3E"/>
<path d="M15.2674 37.93L15.9685 39.4099L17.5522 39.6427L16.4057 40.7984L16.6779 42.4197L15.2674 41.6548L13.857 42.4197L14.1209 40.7984L12.9827 39.6427L14.5581 39.4099L15.2674 37.93Z" fill="#F57F41"/>
<path d="M46.7344 0L32.2175 25.2839L20.6948 4.62277H25.9572L32.2753 15.9469L41.439 0H19.7215C16.7934 0 14.9541 3.27585 16.4222 5.90318L29.0007 28.46C30.4524 31.0707 34.0899 31.0956 35.5746 28.5015L51.939 0H46.7426H46.7344Z" fill="#3C5F3E"/>
<path d="M67.2474 0L62.5295 8.21456L59.8571 12.8623L57.3249 17.2772L53.0853 24.6603L49.9757 21.2099L54.8174 12.7791L57.3496 8.36422L59.4941 4.62277L62.1501 0H56.8547L52.2027 8.08985L46.7342 17.6181L44.3092 21.8418L42.6926 24.6603L41.3564 23.1721L38.9314 27.3957L40.6223 29.2748C41.2244 29.9399 42.074 30.3141 42.9483 30.3141C43.0637 30.3141 43.171 30.3141 43.2864 30.2974C44.2762 30.1894 45.167 29.5907 45.6702 28.7094L47.5508 25.4336L51.015 29.2665C51.6171 29.9316 52.4667 30.3058 53.341 30.3058C53.4565 30.3058 53.5637 30.3058 53.6792 30.2891C54.669 30.181 55.5598 29.5824 56.0629 28.7011L59.9395 21.9498L62.4717 17.5349L65.1442 12.8872L72.551 0H67.2557H67.2474Z" fill="#818285"/>
</g>
<defs>
<clipPath id="clip0_138_495">
<rect width="88" height="62" fill="white"/>
</clipPath>
</defs>
</svg>
