<svg width="12" height="12" viewBox="0 0 12 12" fill="none" xmlns="http://www.w3.org/2000/svg">
<path d="M10.9521 4.84151L8.59218 7.17961L9.14942 10.4816C9.15445 10.5113 9.15104 10.5419 9.13957 10.5698C9.1281 10.5977 9.10904 10.6218 9.08455 10.6394C9.06005 10.657 9.03111 10.6674 9.00101 10.6694C8.97091 10.6714 8.94086 10.6649 8.91427 10.6507L5.99992 9.09333L3.08546 10.6507C3.05887 10.6649 3.02883 10.6713 2.99876 10.6693C2.96868 10.6673 2.93977 10.6569 2.9153 10.6393C2.89083 10.6217 2.87179 10.5976 2.86032 10.5697C2.84886 10.5419 2.84544 10.5113 2.85045 10.4816L3.40763 7.17961L1.04782 4.84151C1.02653 4.82043 1.01153 4.79384 1.0045 4.76472C0.997472 4.73559 0.998696 4.70509 1.00803 4.67662C1.01737 4.64815 1.03445 4.62284 1.05737 4.60354C1.08028 4.58423 1.10812 4.57169 1.13776 4.56732L4.39681 4.08599L5.85484 1.08328C5.86964 1.05793 5.89082 1.03691 5.91627 1.0223C5.94172 1.00769 5.97056 1 5.9999 1C6.02925 1 6.05809 1.00769 6.08354 1.0223C6.10899 1.03691 6.13017 1.05793 6.14496 1.08328L7.60311 4.08599L10.8622 4.56734C10.8919 4.57171 10.9197 4.58425 10.9426 4.60355C10.9655 4.62286 10.9826 4.64816 10.992 4.67663C11.0013 4.7051 11.0025 4.73561 10.9955 4.76473C10.9885 4.79386 10.9735 4.82045 10.9522 4.84153L10.9521 4.84151Z" fill="#2A332B"/>
<path d="M10.9521 4.84151L8.59218 7.17961L9.14942 10.4816C9.15445 10.5113 9.15104 10.5419 9.13957 10.5698C9.1281 10.5977 9.10904 10.6218 9.08455 10.6394C9.06005 10.657 9.03111 10.6674 9.00101 10.6694C8.97091 10.6714 8.94086 10.6649 8.91427 10.6507L5.99992 9.09333L3.08546 10.6507C3.05887 10.6649 3.02883 10.6713 2.99876 10.6693C2.96868 10.6673 2.93977 10.6569 2.9153 10.6393C2.89083 10.6217 2.87179 10.5976 2.86032 10.5697C2.84886 10.5419 2.84544 10.5113 2.85045 10.4816L3.40763 7.17961L1.04782 4.84151C1.02653 4.82043 1.01153 4.79384 1.0045 4.76472C0.997472 4.73559 0.998696 4.70509 1.00803 4.67662C1.01737 4.64815 1.03445 4.62284 1.05737 4.60354C1.08028 4.58423 1.10812 4.57169 1.13776 4.56732L4.39681 4.08599L5.85484 1.08328C5.86964 1.05793 5.89082 1.03691 5.91627 1.0223C5.94172 1.00769 5.97056 1 5.9999 1C6.02925 1 6.05809 1.00769 6.08354 1.0223C6.10899 1.03691 6.13017 1.05793 6.14496 1.08328L7.60311 4.08599L10.8622 4.56734C10.8919 4.57171 10.9197 4.58425 10.9426 4.60355C10.9655 4.62286 10.9826 4.64816 10.992 4.67663C11.0013 4.7051 11.0025 4.73561 10.9955 4.76473C10.9885 4.79386 10.9735 4.82045 10.9522 4.84153L10.9521 4.84151Z" fill="black" fill-opacity="0.2"/>
</svg>
