<svg width="16" height="16" viewBox="0 0 16 16" fill="none" xmlns="http://www.w3.org/2000/svg">
<path d="M8 1.5625C9.70677 1.56432 11.3429 2.24332 12.5498 3.4502C13.7567 4.65707 14.4357 6.29323 14.4375 8C14.4375 9.27314 14.0598 10.5176 13.3525 11.5762C12.6453 12.6347 11.64 13.46 10.4639 13.9473C9.28757 14.4345 7.99289 14.5619 6.74414 14.3135C5.4954 14.0651 4.34853 13.4521 3.44824 12.5518C2.54795 11.6515 1.93492 10.5046 1.68652 9.25586C1.43813 8.00711 1.5655 6.71243 2.05273 5.53613C2.53999 4.35999 3.3653 3.35475 4.42383 2.64746C5.41628 1.98438 6.57206 1.61144 7.76172 1.56738L8 1.5625ZM7.8418 9.95312C7.68419 9.98448 7.53941 10.0622 7.42578 10.1758C7.31215 10.2894 7.23448 10.4342 7.20312 10.5918C7.17188 10.7492 7.18772 10.9123 7.24902 11.0605C7.31052 11.209 7.41521 11.3365 7.54883 11.4258C7.68239 11.5149 7.83941 11.5625 8 11.5625C8.21549 11.5625 8.42185 11.4766 8.57422 11.3242C8.72659 11.1718 8.8125 10.9655 8.8125 10.75C8.8125 10.5894 8.76495 10.4324 8.67578 10.2988C8.5865 10.1652 8.45901 10.0605 8.31055 9.99902C8.16229 9.93772 7.99916 9.92188 7.8418 9.95312ZM8 4.4375C7.85082 4.4375 7.70803 4.49705 7.60254 4.60254C7.49705 4.70803 7.4375 4.85082 7.4375 5V8.5C7.4375 8.64918 7.49705 8.79197 7.60254 8.89746C7.70803 9.00295 7.85082 9.0625 8 9.0625C8.14918 9.0625 8.29197 9.00295 8.39746 8.89746C8.50295 8.79197 8.5625 8.64918 8.5625 8.5V5C8.5625 4.85082 8.50295 4.70803 8.39746 4.60254C8.29197 4.49705 8.14918 4.4375 8 4.4375Z" fill="#D83833" stroke="#D83833" stroke-width="0.125"/>
</svg>
