<svg width="25" height="25" viewBox="0 0 25 25" fill="none" xmlns="http://www.w3.org/2000/svg">
<g clip-path="url(#clip0_264_9014)">
<path d="M24.04 6.32189C23.9013 5.80004 23.628 5.32377 23.2474 4.94074C22.8668 4.55771 22.3923 4.28135 21.8713 4.13933C19.9536 3.62366 12.2881 3.62366 12.2881 3.62366C12.2881 3.62366 4.6227 3.62366 2.70495 4.13933C2.184 4.28135 1.70949 4.55771 1.3289 4.94074C0.948315 5.32377 0.675006 5.80004 0.536325 6.32189C0.0234376 8.24801 0.0234375 12.2647 0.0234375 12.2647C0.0234375 12.2647 0.0234376 16.2814 0.536325 18.2075C0.675006 18.7294 0.948315 19.2056 1.3289 19.5887C1.70949 19.9717 2.184 20.248 2.70495 20.3901C4.6227 20.9057 12.2881 20.9057 12.2881 20.9057C12.2881 20.9057 19.9536 20.9057 21.8713 20.3901C22.3923 20.248 22.8668 19.9717 23.2474 19.5887C23.628 19.2056 23.9013 18.7294 24.04 18.2075C24.5529 16.2814 24.5528 12.2647 24.5528 12.2647C24.5528 12.2647 24.5529 8.24801 24.04 6.32189Z" fill="#2A332B"/>
<path d="M24.04 6.32189C23.9013 5.80004 23.628 5.32377 23.2474 4.94074C22.8668 4.55771 22.3923 4.28135 21.8713 4.13933C19.9536 3.62366 12.2881 3.62366 12.2881 3.62366C12.2881 3.62366 4.6227 3.62366 2.70495 4.13933C2.184 4.28135 1.70949 4.55771 1.3289 4.94074C0.948315 5.32377 0.675006 5.80004 0.536325 6.32189C0.0234376 8.24801 0.0234375 12.2647 0.0234375 12.2647C0.0234375 12.2647 0.0234376 16.2814 0.536325 18.2075C0.675006 18.7294 0.948315 19.2056 1.3289 19.5887C1.70949 19.9717 2.184 20.248 2.70495 20.3901C4.6227 20.9057 12.2881 20.9057 12.2881 20.9057C12.2881 20.9057 19.9536 20.9057 21.8713 20.3901C22.3923 20.248 22.8668 19.9717 23.2474 19.5887C23.628 19.2056 23.9013 18.7294 24.04 18.2075C24.5529 16.2814 24.5528 12.2647 24.5528 12.2647C24.5528 12.2647 24.5529 8.24801 24.04 6.32189Z" fill="black" fill-opacity="0.2"/>
<path d="M9.78125 15.9125V8.6178L16.1923 12.2652L9.78125 15.9125Z" fill="white"/>
</g>
<defs>
<clipPath id="clip0_264_9014">
<rect width="24.5294" height="24.5294" fill="white"/>
</clipPath>
</defs>
</svg>
