<svg width="25" height="25" viewBox="0 0 25 25" fill="none" xmlns="http://www.w3.org/2000/svg">
<g clip-path="url(#clip0_81_171)">
<path d="M24.0405 6.32177C23.9019 5.79992 23.6286 5.32365 23.248 4.94062C22.8674 4.55759 22.3929 4.28123 21.8719 4.13921C19.9542 3.62354 12.2887 3.62354 12.2887 3.62354C12.2887 3.62354 4.62328 3.62354 2.70553 4.13921C2.18458 4.28123 1.71007 4.55759 1.32948 4.94062C0.948895 5.32365 0.675586 5.79992 0.536905 6.32177C0.0240174 8.24789 0.0240173 12.2646 0.0240173 12.2646C0.0240173 12.2646 0.0240174 16.2813 0.536905 18.2074C0.675586 18.7292 0.948895 19.2055 1.32948 19.5885C1.71007 19.9716 2.18458 20.2479 2.70553 20.3899C4.62328 20.9056 12.2887 20.9056 12.2887 20.9056C12.2887 20.9056 19.9542 20.9056 21.8719 20.3899C22.3929 20.2479 22.8674 19.9716 23.248 19.5885C23.6286 19.2055 23.9019 18.7292 24.0405 18.2074C24.5534 16.2813 24.5534 12.2646 24.5534 12.2646C24.5534 12.2646 24.5534 8.24789 24.0405 6.32177Z" fill="white"/>
<path d="M9.78049 15.9124V8.61768L16.1916 12.265L9.78049 15.9124Z" fill="#3C5F3E"/>
</g>
<defs>
<clipPath id="clip0_81_171">
<rect width="24.5294" height="24.5294" fill="white"/>
</clipPath>
</defs>
</svg>
